<svg width="348" height="36" viewBox="0 0 348 36" fill="none" xmlns="http://www.w3.org/2000/svg">
<path d="M133.313 10.7754C130.921 6.08651 123.687 6.62552 120.962 10.8463C121.768 7.02266 115.995 6.0935 116.272 10.3178C117.031 12.7186 114.144 28.1726 118.755 27.8109C123.498 27.7255 120.203 16.9011 121.654 14.3327C123.489 9.50199 130.116 10.8818 129.126 16.4393V24.7733C128.771 28.7209 134.478 28.7744 134.092 24.7733C133.813 21.5544 134.816 13.6024 133.313 10.7754Z" fill="white"/>
<path d="M156.085 18.3173C161.887 5.51309 137.121 2.77497 138.147 17.608C137.438 26.5956 148.081 30.582 154.737 25.8793C157.355 24.5454 157.685 19.6403 154.05 21.2682C150.76 25.9008 143.125 25.4746 143.259 18.8675C145.419 18.6901 154.307 19.3814 156.085 18.3173ZM143.259 16.0369C143.236 9.3763 152.483 9.2978 152.327 16.0369H143.259Z" fill="white"/>
<path d="M78.0306 19.4358C76.8671 19.4358 76.3133 20.2446 75.7386 21.2342C66.376 32.8534 61.2354 7.12514 73.7341 11.9809C75.3482 13.0275 76.7921 17.0395 79.2294 14.8184C82.0676 6.28086 64.825 4.93713 62.4377 12.3996C57.9888 20.9295 65.5633 30.7329 75.0185 27.1861C78.3255 26.6144 82.9199 20.6592 78.0306 19.4358Z" fill="white"/>
<path d="M108.775 0.258842C105.507 0.155924 105.447 5.33089 108.775 5.15006C112.017 5.29834 112.011 0.0919637 108.775 0.258842Z" fill="white"/>
<path d="M57.1026 20.8648C58.0781 9.56829 55.3639 5.36551 43.5784 8.24722C39.6402 9.00601 37.8194 16.2027 43.0217 14.4473C44.5156 10.4149 52.4379 8.80717 52.246 14.7485C29.0041 16.9406 40.2824 34.3733 52.5758 24.988C53.6403 27.6836 57.319 29.1663 58.0537 25.7753C57.9438 24.7629 56.9607 22.1452 57.1026 20.8648ZM52.2279 18.4674C51.873 31.3066 33.396 20.3084 52.2279 17.7581V18.4674Z" fill="white"/>
<path d="M100.397 10.6248C98.0056 6.20922 91.2828 6.65925 88.4657 10.4969C88.2706 8.90077 89.0438 1.98434 87.7983 0.806891C87.4149 0.413865 86.9147 0.155018 86.3723 0.0687821C85.8298 -0.0174535 85.274 0.0735064 84.7875 0.328209C84.3009 0.582913 83.9097 0.987756 83.6716 1.48254C83.4335 1.97732 83.3615 2.53567 83.4663 3.0746V24.763C83.1115 28.9803 88.8554 28.6152 88.465 24.763C88.8721 20.5067 86.6238 11.5156 92.8819 11.3383C100.396 11.1749 92.5271 27.3865 98.7822 27.8063C100.499 27.7814 101.311 26.5329 101.294 24.763C100.993 21.5667 102.068 13.4164 100.397 10.6248Z" fill="white"/>
<path d="M108.722 7.47552C107.051 7.50053 106.239 8.72391 106.239 10.4619C106.995 12.8592 104.11 28.1964 108.722 27.8091C113.406 28.2771 110.496 12.6854 111.252 10.313C111.28 8.68846 110.301 7.48077 108.722 7.47552Z" fill="white"/>
<path d="M291.69 10.7754C289.299 6.08651 282.064 6.62552 279.339 10.8463C280.146 7.02266 274.373 6.0935 274.649 10.3178C275.409 12.7186 272.522 28.176 277.132 27.8109C281.876 27.7219 278.579 16.9011 280.031 14.3327C281.871 9.50199 288.493 10.8818 287.505 16.4393V24.7733C287.15 28.7209 292.86 28.7744 292.47 24.7733C292.192 21.5544 293.205 13.6024 291.69 10.7754Z" fill="white"/>
<path d="M267.161 0.257996C263.894 0.155078 263.835 5.33005 267.161 5.14922C270.406 5.29806 270.397 0.0876287 267.161 0.257996Z" fill="white"/>
<path d="M197.938 18.3176C203.736 5.50981 178.968 2.77522 180 17.6083C179.291 26.5959 189.933 30.5823 196.59 25.8794C199.208 24.5456 199.542 19.6404 195.905 21.2685C192.609 25.8974 184.978 25.4747 185.112 18.8676C187.273 18.6897 196.16 19.3817 197.938 18.3176ZM185.112 16.0371C185.087 9.37651 194.337 9.29801 194.18 16.0371H185.112Z" fill="white"/>
<path d="M220.417 20.8649C221.692 10.0365 218.085 5.10277 206.891 8.2473C202.903 8.90667 201.276 16.2028 206.333 14.4468C207.726 10.4347 215.846 8.85317 215.56 14.748C211.721 16.2598 206.355 15.7836 203.448 18.6745C197.959 26.7568 210.808 30.7835 215.865 24.995C216.929 27.6906 220.608 29.1734 221.341 25.7823C221.26 24.7631 220.275 22.1452 220.417 20.8649ZM215.542 18.4676C215.187 31.3068 196.711 20.3084 215.542 17.7583V18.4676Z" fill="white"/>
<path d="M237.744 8.26373C234.839 6.65716 231.763 7.5119 230.326 10.5896C230.68 6.50365 225.101 6.33326 225.491 10.8448C225.796 12.4973 224.781 25.986 226.2 27.0397C232.385 30.8558 229.996 19.6302 230.654 16.7716C230.697 12.3595 233.435 10.8239 237.248 12.4589C239.479 12.3601 240.016 9.18301 237.744 8.26373Z" fill="white"/>
<path d="M267.106 7.47562C265.436 7.50062 264.623 8.724 264.623 10.462C265.379 12.8593 262.494 28.1965 267.106 27.8092C271.79 28.2772 268.881 12.6855 269.636 10.3131C269.667 8.68855 268.692 7.48086 267.106 7.47562Z" fill="white"/>
<path d="M258.853 10.7754C256.462 6.08651 249.231 6.62552 246.504 10.8463C247.309 7.02266 241.537 6.0935 241.814 10.3178C242.574 12.7186 239.686 28.176 244.297 27.8109C249.042 27.7219 245.746 16.9011 247.196 14.3327C249.032 9.50199 255.659 10.8818 254.668 16.4393V24.7733C254.602 25.1373 254.615 25.5115 254.709 25.8694C254.804 26.2272 254.974 26.56 255.212 26.8442C255.449 27.1284 255.746 27.3569 256.08 27.5138C256.416 27.6709 256.782 27.7522 257.151 27.7522C257.522 27.7522 257.888 27.6709 258.222 27.5138C258.558 27.3569 258.855 27.1284 259.091 26.8442C259.328 26.56 259.5 26.2272 259.593 25.8694C259.687 25.5115 259.702 25.1373 259.636 24.7733C259.355 21.5544 260.36 13.6024 258.853 10.7754Z" fill="white"/>
<path d="M313.457 7.57341H313.466H313.476C313.707 7.52807 313.947 7.54567 314.171 7.6244C314.393 7.70313 314.591 7.84014 314.744 8.02114C315.133 8.51396 315.399 9.09172 315.522 9.70735C315.894 11.5866 316.04 13.5034 315.959 15.4173C315.939 17.1035 315.848 18.8479 315.765 20.4178C315.742 20.8678 315.719 21.3039 315.699 21.7208C315.654 22.6553 315.621 23.4931 315.626 24.1705C315.606 24.6733 315.649 25.1765 315.755 25.6684C315.997 28.7955 315.058 31.2719 313.297 32.9099C311.537 34.5478 308.934 35.3613 305.838 35.1292H305.825C303.605 35.1764 301.411 34.6489 299.456 33.5978C298.574 33.1552 297.849 32.4501 297.383 31.5795C297.193 31.1378 297.122 30.6548 297.173 30.1772C297.226 29.6997 297.4 29.2434 297.678 28.8524C297.865 28.6646 298.089 28.5165 298.334 28.4165C298.58 28.3167 298.844 28.2672 299.109 28.271C299.584 28.3245 300.031 28.5188 300.395 28.8286C300.827 29.179 301.231 29.5635 301.602 29.9781L301.69 30.0706C302.022 30.4422 302.378 30.7919 302.757 31.1173L302.767 31.1249L302.779 31.13C305.595 32.4192 307.863 32.129 309.322 30.751C310.782 29.3728 311.398 26.9552 310.987 24.0409L310.953 23.7966L310.81 23.9984C309.767 25.6019 308.136 26.7329 306.269 27.1494C304.584 27.4628 302.842 27.1897 301.334 26.3754C299.676 25.5203 298.319 24.1795 297.445 22.5327C296.571 20.8857 296.221 19.0111 296.441 17.1599V17.1367C296.234 15.3114 296.62 13.4679 297.544 11.8797C298.468 10.2915 299.878 9.04337 301.569 8.32056C303.204 7.53443 305.069 7.3666 306.819 7.84812C308.569 8.32963 310.083 9.42793 311.087 10.94L311.299 11.2407L311.264 10.8749C311.166 10.0937 311.304 9.30124 311.656 8.59734C311.825 8.27174 312.087 8.00206 312.406 7.82048C312.726 7.6389 313.09 7.55311 313.457 7.57341ZM310.368 21.008L310.385 20.9835V20.9726C311.847 18.41 311.193 15.0172 309.542 12.9362C309.173 12.427 308.706 11.9973 308.168 11.6728C307.628 11.3485 307.03 11.136 306.408 11.0482C305.191 10.9319 303.87 11.4267 302.585 12.7821H302.582V12.785C300.352 15.5528 300.956 19.5881 302.776 21.9372C303.165 22.5085 303.683 22.9799 304.289 23.3125C304.895 23.6452 305.57 23.8299 306.261 23.8513C307.607 23.8211 309.044 22.9815 310.368 21.0086V21.008Z" fill="#5755D9"/>
<path d="M313.464 7.4759C311.638 7.4474 311.015 9.23133 311.171 10.8844C306.173 3.77317 295.407 8.83419 296.349 17.1484C295.311 25.4086 305.722 31.4209 310.895 24.0538C311.709 29.8493 308.411 33.5985 302.824 31.0413C301.322 29.8248 299.754 26.8984 297.608 28.7893C295.013 33.0456 302.276 35.4358 305.835 35.2266C312.068 35.6947 316.346 31.9635 315.858 25.65C315.12 23.3194 317.937 6.75606 313.464 7.4759ZM310.29 20.9535C305.03 28.7852 298.267 18.2969 302.66 12.8492C307.732 7.49337 313.201 15.8995 310.29 20.9465V20.9535Z" fill="white"/>
<path d="M1.43519 27.1578C1.16178 22.6807 1.16178 18.3296 0.99134 13.85C0.927352 12.1405 0.923865 10.4276 0.758658 8.71751C0.695251 8.06512 -0.0784253 6.23466 0.00650468 4.59261C0.130991 2.26678 4.5869 2.65288 5.37105 3.30179C6.1552 3.9507 6.25817 6.74579 6.58101 7.75635C6.67351 8.0401 6.76541 8.2029 7.12724 8.02206C9.04685 6.98803 11.2535 6.61414 13.4068 6.95802C13.9153 7.08366 14.4164 7.23758 14.9076 7.41909C15.1031 7.50805 17.6255 8.77041 18.9522 8.54714C20.8434 7.73308 26.3779 6.77367 27.9566 7.12838C29.5354 7.48306 31.0501 8.59308 31.3625 9.29898C31.7174 9.81705 31.9942 10.363 32.3562 10.8846C33.6475 12.704 34.1298 14.7862 34.3712 16.9636C34.6995 19.7891 34.6314 22.6466 34.1687 25.4531C33.6225 29 28.6238 28.4678 28.2353 27.4783C27.7455 26.2125 27.8555 24.8007 27.9619 23.4458C28.1713 20.1818 27.797 16.9065 26.8567 13.7739C26.5914 13.14 26.2659 12.533 25.8845 11.9615C25.7782 11.8008 25.6353 11.6676 25.4676 11.5727C25.2999 11.4778 25.112 11.4239 24.9195 11.4155C23.9597 11.273 22.9803 11.3469 22.0528 11.6318C21.3994 11.7465 20.7621 11.9394 20.1547 12.2063C19.8458 12.3836 19.7608 12.5609 19.8458 12.8342C21.0674 16.9201 20.7184 20.7647 21.1477 24.936C21.2292 25.7502 21.3465 26.6136 20.7469 27.33C20.307 27.8533 15.7372 28.7487 14.8506 27.6173C14.0735 26.6345 14.2654 25.2234 14.141 23.9854C13.8606 20.7932 14.0345 17.9911 13.985 14.792V14.0471C13.9426 12.7598 13.7366 12.586 12.4348 12.7988C11.4095 12.9802 10.4509 13.4307 9.65711 14.1041C9.42119 14.3452 9.16743 14.5681 8.89798 14.7711C7.67057 15.4804 7.59959 16.6085 7.688 17.8708C7.93814 20.1088 7.97028 22.3657 7.78399 24.61C7.66765 25.532 7.29071 27.302 6.86897 27.5109C4.61367 28.6615 1.48463 28.2156 1.43519 27.1578Z" fill="white"/>
<mask id="mask0_16_272" style="mask-type:alpha" maskUnits="userSpaceOnUse" x="0" y="2" width="35" height="27">
<path d="M1.43519 27.1578C1.16178 22.6807 1.16178 18.3296 0.99134 13.85C0.927352 12.1405 0.923865 10.4276 0.758658 8.71751C0.695251 8.06512 -0.0784253 6.23466 0.00650468 4.59261C0.130991 2.26678 4.5869 2.65288 5.37105 3.30179C6.1552 3.9507 6.25817 6.74579 6.58101 7.75635C6.67351 8.0401 6.76541 8.2029 7.12724 8.02206C9.04685 6.98803 11.2535 6.61414 13.4068 6.95802C13.9153 7.08366 14.4164 7.23758 14.9076 7.41909C15.1031 7.50805 17.6255 8.77041 18.9522 8.54714C20.8434 7.73308 26.3779 6.77367 27.9566 7.12838C29.5354 7.48306 31.0501 8.59308 31.3625 9.29898C31.7174 9.81705 31.9942 10.363 32.3562 10.8846C33.6475 12.704 34.1298 14.7862 34.3712 16.9636C34.6995 19.7891 34.6314 22.6466 34.1687 25.4531C33.6225 29 28.6238 28.4678 28.2353 27.4783C27.7455 26.2125 27.8555 24.8007 27.9619 23.4458C28.1713 20.1818 27.797 16.9065 26.8567 13.7739C26.5914 13.14 26.2659 12.533 25.8845 11.9615C25.7782 11.8008 25.6353 11.6676 25.4676 11.5727C25.2999 11.4778 25.112 11.4239 24.9195 11.4155C23.9597 11.273 22.9803 11.3469 22.0528 11.6318C21.3994 11.7465 20.7621 11.9394 20.1547 12.2063C19.8458 12.3836 19.7608 12.5609 19.8458 12.8342C21.0674 16.9201 20.7184 20.7647 21.1477 24.936C21.2292 25.7502 21.3465 26.6136 20.7469 27.33C20.307 27.8533 15.7372 28.7487 14.8506 27.6173C14.0735 26.6345 14.2654 25.2234 14.141 23.9854C13.8606 20.7932 14.0345 17.9911 13.985 14.792V14.0471C13.9426 12.7598 13.7366 12.586 12.4348 12.7988C11.4095 12.9802 10.4509 13.4307 9.65711 14.1041C9.42119 14.3452 9.16743 14.5681 8.89798 14.7711C7.67057 15.4804 7.59959 16.6085 7.688 17.8708C7.93814 20.1088 7.97028 22.3657 7.78399 24.61C7.66765 25.532 7.29071 27.302 6.86897 27.5109C4.61367 28.6615 1.48463 28.2156 1.43519 27.1578Z" fill="#08345C"/>
</mask>
<g mask="url(#mask0_16_272)">
<path d="M43.3364 26.5619L1.2873 32.5409L-0.124512 22.6067L42.1583 16.4346L43.3364 26.5619Z" fill="#5755D9"/>
</g>
<path d="M173.235 0.0385537C171.51 0.0635564 170.751 1.31774 170.751 3.0784C171.655 5.34609 168.359 28.6474 173.235 27.8101C174.938 27.7817 175.786 26.5506 175.765 24.7668C174.869 22.5753 178.147 -1.08192 173.235 0.0385537Z" fill="white"/>
<mask id="mask1_16_272" style="mask-type:alpha" maskUnits="userSpaceOnUse" x="170" y="0" width="7" height="28">
<path d="M173.235 0.0385538C171.51 0.0635564 170.751 1.31774 170.751 3.0784C171.655 5.34609 168.359 28.6475 173.235 27.8101C174.938 27.7817 175.786 26.5506 175.765 24.7668C174.869 22.5753 178.147 -1.08192 173.235 0.0385538Z" fill="#08345C"/>
</mask>
<g mask="url(#mask1_16_272)">
<path d="M177.322 36.5902L163.151 33.3277L167.195 15.7461L181.517 18.7429L177.322 36.5902Z" fill="#5755D9"/>
</g>
<path d="M345.687 11.7077H340.998C340.785 9.71101 342.015 4.61395 338.634 4.69245C335.257 4.60756 336.482 9.71858 336.271 11.7077C334.25 11.9171 329.095 10.6896 329.255 14.1446C329.169 17.5212 334.281 16.296 336.271 16.5071C336.48 18.5038 335.265 23.5654 338.634 23.4847C342.001 23.5659 340.791 18.4904 340.998 16.5071H345.687C348.771 16.5455 348.771 11.6618 345.687 11.7077Z" fill="white"/>
<mask id="mask2_16_272" style="mask-type:alpha" maskUnits="userSpaceOnUse" x="329" y="4" width="19" height="20">
<path d="M345.687 11.7077H340.998C340.785 9.71101 342.015 4.61395 338.634 4.69245C335.257 4.60756 336.482 9.71858 336.271 11.7077C334.25 11.9171 329.095 10.6896 329.255 14.1446C329.169 17.5212 334.281 16.296 336.271 16.5071C336.48 18.5038 335.265 23.5654 338.634 23.4847C342.001 23.5659 340.791 18.4904 340.998 16.5071H345.687C348.771 16.5455 348.771 11.6618 345.687 11.7077Z" fill="#08345C"/>
</mask>
<g mask="url(#mask2_16_272)">
<path d="M343.717 23.9844L333.205 25.4881L332.253 18.856L342.819 17.2383L343.717 23.9844Z" fill="#5755D9"/>
</g>
</svg>
